<?xml version="1.0" standalone="no"?>
<!DOCTYPE svg PUBLIC "-//W3C//DTD SVG 20010904//EN"
 "http://www.w3.org/TR/2001/REC-SVG-20010904/DTD/svg10.dtd">
<svg version="1.0" xmlns="http://www.w3.org/2000/svg"
 width="2000.000000pt" height="663.000000pt" viewBox="0 0 2000.000000 663.000000"
 preserveAspectRatio="xMidYMid meet">

<g transform="translate(0.000000,663.000000) scale(0.100000,-0.100000)"
fill="#000000" stroke="none">
<path d="M17507 6185 c-207 -29 -443 -102 -620 -192 -202 -103 -355 -236 -468
-406 l-61 -92 6 50 c12 89 28 149 59 215 40 88 164 211 263 263 40 20 75 44
78 53 7 18 -8 49 -28 57 -7 3 -77 -16 -155 -43 -230 -79 -353 -78 -569 5 -63
24 -120 41 -128 38 -20 -8 -36 -41 -29 -61 3 -9 33 -37 67 -62 93 -69 192
-169 226 -230 70 -123 67 -42 67 -1660 0 -1490 -3 -1637 -41 -1930 -44 -343
-183 -644 -385 -836 -171 -161 -396 -270 -671 -326 -97 -20 -143 -23 -328 -23
-200 1 -223 2 -322 27 -329 83 -571 253 -755 533 -130 197 -232 505 -278 845
-27 202 -36 749 -32 2015 3 1129 4 1226 21 1295 23 99 74 206 136 290 27 37
50 77 50 89 0 69 -146 20 -286 -97 -129 -108 -261 -152 -476 -159 -230 -8
-413 25 -750 137 -351 118 -516 150 -754 150 -436 0 -893 -171 -1157 -433
-168 -167 -269 -363 -328 -636 -29 -136 -37 -404 -15 -527 46 -263 159 -477
352 -666 165 -160 410 -311 1049 -648 746 -393 1095 -605 1287 -782 199 -184
298 -462 254 -716 -60 -345 -300 -593 -654 -676 -357 -83 -704 -94 -1018 -31
-459 92 -845 369 -1033 742 -30 60 -30 64 -19 115 8 32 12 122 12 223 0 136
-5 191 -22 272 -57 264 -179 487 -374 683 -196 197 -384 314 -1088 680 -304
158 -626 334 -805 441 -385 229 -585 454 -660 744 -26 98 -24 274 3 376 69
259 284 486 566 599 154 62 216 73 391 73 115 0 181 -4 235 -17 194 -44 408
-137 585 -253 254 -167 494 -423 580 -617 24 -54 27 -57 57 -54 35 3 31 -6 63
133 21 92 84 223 178 372 95 149 116 196 117 251 0 57 -41 102 -94 102 -29 0
-47 -10 -96 -54 -81 -73 -134 -93 -201 -78 -28 7 -130 50 -227 96 -454 215
-712 288 -1032 288 -281 1 -555 -62 -816 -186 -151 -73 -252 -142 -360 -250
-179 -178 -278 -375 -333 -660 -57 -295 -28 -577 84 -813 153 -324 377 -507
1075 -880 124 -66 326 -174 450 -241 961 -513 1193 -699 1300 -1037 27 -88 37
-254 21 -350 -49 -278 -239 -513 -504 -621 -241 -98 -727 -126 -1091 -64 -496
85 -1032 338 -1292 611 -58 62 -63 71 -131 254 -112 298 -1507 3981 -1542
4070 -44 111 -88 141 -140 98 -13 -12 -124 -289 -327 -818 -588 -1537 -808
-2115 -1074 -2815 -147 -388 -288 -751 -314 -808 -91 -206 -189 -347 -332
-479 -80 -74 -94 -92 -94 -118 0 -66 -3 -65 401 -65 200 0 369 4 375 8 15 10
34 47 34 67 0 8 -38 52 -84 95 -144 138 -181 248 -141 426 42 187 456 1267
507 1321 12 13 42 33 67 45 l46 23 785 3 c738 3 787 2 820 -15 19 -10 44 -32
55 -49 12 -17 61 -136 109 -265 49 -129 150 -394 226 -589 76 -196 143 -382
149 -415 16 -84 14 -258 -4 -361 -28 -156 -65 -262 -124 -348 -37 -53 -39 -85
-8 -114 48 -45 104 -17 242 123 134 137 236 197 357 211 107 12 404 -55 683
-155 361 -129 673 -185 1090 -198 374 -11 593 29 903 164 212 92 481 163 617
163 75 0 295 -59 595 -160 468 -157 1104 -214 1505 -134 128 25 291 81 420
144 264 128 466 314 593 548 l39 73 41 -68 c168 -280 465 -512 791 -617 455
-147 1070 -155 1463 -20 57 19 222 93 368 164 311 151 390 180 516 187 111 7
131 1 444 -119 271 -104 380 -138 563 -173 415 -79 862 -93 1136 -35 730 154
1177 676 1148 1340 -23 507 -287 900 -815 1212 -168 100 -282 161 -682 370
-602 315 -882 478 -1055 613 -269 210 -406 460 -406 740 0 329 187 601 527
765 146 71 238 92 414 97 170 5 276 -10 436 -63 391 -129 800 -461 978 -792
34 -63 46 -78 68 -80 31 -4 42 12 52 77 17 109 82 253 198 435 90 141 108 180
108 239 0 41 -5 53 -30 79 -27 27 -36 30 -72 25 -32 -4 -52 -17 -92 -55 -112
-109 -152 -108 -393 6 -296 140 -532 229 -713 266 -182 38 -391 45 -573 21z
m-6145 -226 c360 -39 810 -233 1143 -494 106 -83 253 -235 304 -314 l41 -64 0
-1046 0 -1046 -77 76 c-199 193 -366 296 -1089 672 -605 314 -929 506 -1102
652 -334 281 -448 678 -292 1021 106 234 333 420 623 509 139 43 274 53 449
34z m-6158 -1802 c218 -582 396 -1060 396 -1062 0 -3 -362 -5 -805 -5 -563 0
-805 3 -805 11 0 8 585 1561 770 2047 18 46 36 80 41 75 4 -4 186 -484 403
-1066z m11294 -145 c154 -179 417 -348 1107 -712 679 -358 1056 -582 1243
-740 195 -164 298 -364 309 -596 12 -245 -73 -455 -257 -627 -189 -178 -453
-251 -900 -250 -305 0 -557 42 -845 138 -339 115 -709 327 -882 507 l-42 43
25 90 c31 116 60 275 80 445 15 126 30 889 33 1669 l1 204 41 -58 c22 -32 62
-83 87 -113z"/>
<path d="M577 6076 l-69 -23 51 -37 c69 -51 137 -129 171 -196 58 -115 62
-143 70 -555 11 -495 11 -3228 1 -3590 -8 -260 -10 -285 -34 -357 -13 -43 -39
-100 -57 -128 -40 -63 -131 -147 -212 -196 l-63 -39 569 -3 c313 -1 571 0 573
2 3 2 -38 87 -89 188 -58 112 -99 206 -108 243 -9 45 -14 244 -17 807 l-5 746
553 5 c583 5 646 9 888 58 289 58 561 170 786 323 118 79 304 266 377 376 222
337 294 732 212 1163 -86 452 -365 808 -795 1011 -179 84 -423 157 -644 191
-146 23 -639 34 -1415 34 -672 -1 -675 -1 -743 -23z m1088 -106 c771 -31 1053
-73 1285 -190 430 -217 669 -699 647 -1305 -7 -176 -22 -283 -61 -426 -118
-435 -403 -738 -825 -878 -219 -72 -419 -91 -978 -91 l-363 0 0 1455 c0 1159
3 1454 13 1450 6 -2 134 -9 282 -15z"/>
</g>
</svg>
